<?xml version="1.0" encoding="UTF-8" standalone="no"?>
<svg width="32px" height="31px" viewBox="0 0 32 31" version="1.1" xmlns="http://www.w3.org/2000/svg" xmlns:xlink="http://www.w3.org/1999/xlink">
    <!-- Generator: Sketch 3.8.3 (29802) - http://www.bohemiancoding.com/sketch -->
    <title>Shape</title>
    <desc>Created with Sketch.</desc>
    <defs></defs>
    <g id="Page-1" stroke="none" stroke-width="1" fill="none" fill-rule="evenodd">
        <path d="M22.0647397,30.80807 L23.1683533,30.80807 L23.1683533,0 L22.0647397,0 L22.0647397,30.80807 L22.0647397,30.80807 Z M19.8575127,30.80807 L20.9611262,30.80807 L20.9611262,0 L19.8575127,0 L19.8575127,30.80807 L19.8575127,30.80807 Z M24.2726514,30.80807 L25.3762649,30.80807 L25.3762649,0 L24.2726514,0 L24.2726514,30.80807 L24.2726514,30.80807 Z M30.8957018,0 L30.8957018,13.2036542 L32,13.2036542 L32,0 L30.8957018,0 L30.8957018,0 Z M28.6877902,13.2036542 L29.7914037,13.2036542 L29.7914037,0 L28.6877902,0 L28.6877902,13.2036542 L28.6877902,13.2036542 Z M17.649601,13.2036542 L18.7532145,13.2036542 L18.7532145,0 L17.649601,0 L17.649601,13.2036542 L17.649601,13.2036542 Z M15.4423739,13.2036542 L16.5459875,13.2036542 L16.5459875,0 L15.4423739,0 L15.4423739,13.2036542 L15.4423739,13.2036542 Z M6.61141182,30.80807 L7.71502535,30.80807 L7.71502535,0 L6.61141182,0 L6.61141182,30.80807 L6.61141182,30.80807 Z M8.81863888,30.80807 L9.92225241,30.80807 L9.92225241,0 L8.81863888,0 L8.81863888,30.80807 L8.81863888,30.80807 Z M11.0258659,30.80807 L12.1301641,30.80807 L12.1301641,0 L11.0258659,0 L11.0258659,30.80807 L11.0258659,30.80807 Z M15.4423739,30.80807 L16.5459875,30.80807 L16.5459875,17.6044158 L15.4423739,17.6044158 L15.4423739,30.80807 L15.4423739,30.80807 Z M13.2344622,30.80807 L14.3380758,30.80807 L14.3380758,17.6044158 L13.2344622,17.6044158 L13.2344622,30.80807 L13.2344622,30.80807 Z M0,30.80807 L1.10361353,30.80807 L1.10361353,17.6044158 L0,17.6044158 L0,30.80807 L0,30.80807 Z M2.21475792,30.80807 L3.31768683,30.80807 L3.31768683,17.6044158 L2.21475792,17.6044158 L2.21475792,30.80807 L2.21475792,30.80807 Z" id="Shape" fill="#819F29"></path>
    </g>
</svg>